<svg width="110" height="111" viewBox="0 0 110 111" fill="none" xmlns="http://www.w3.org/2000/svg">
<g clip-path="url(#clip0_5_1836)">
<g clip-path="url(#clip1_5_1836)">
<path d="M43.1686 15.1042C36.3829 15.1042 30.2324 19.0967 27.4699 25.2945L16.292 50.373C9.59104 50.8334 4.29688 56.4114 4.29688 63.2292V76.1198C4.29688 82.0525 9.10636 86.862 15.0391 86.862H17.9835C17.9994 86.0353 18.0204 85.2089 18.0469 84.3824C17.3476 82.9569 16.9533 81.3546 16.9533 79.6597L16.7578 72.0378C16.7578 66.4012 17.9046 61.2241 22.0885 60.3812C24.0773 59.9806 25.7424 58.6256 26.5573 56.7676L40.3605 25.2945C43.1228 19.0967 49.2733 15.1042 56.0592 15.1042H43.1686Z" />
<path d="M94.9609 86.862C100.894 86.862 105.703 82.0525 105.703 76.1198V63.2292C105.703 56.1099 99.9318 50.3386 92.8125 50.3386L79.5736 24.5305C76.6474 18.7488 70.7184 15.1042 64.2383 15.1042H43.1686C36.3829 15.1042 30.2324 19.0967 27.4699 25.2945L16.292 50.373C9.59104 50.8334 4.29688 56.4114 4.29688 63.2292V76.1198C4.29688 82.0525 9.10636 86.862 15.0391 86.862" stroke="#405FF2" stroke-width="5" stroke-miterlimit="10" stroke-linecap="round" stroke-linejoin="round"/>
<path d="M38.0273 95.4558C42.7735 95.4558 46.6211 91.6082 46.6211 86.862C46.6211 82.1158 42.7735 78.2683 38.0273 78.2683C33.2811 78.2683 29.4336 82.1158 29.4336 86.862C29.4336 91.6082 33.2811 95.4558 38.0273 95.4558Z" stroke="#405FF2" stroke-width="5" stroke-miterlimit="10" stroke-linecap="round" stroke-linejoin="round"/>
<path d="M63.1646 86.8621H49.8438" stroke="#405FF2" stroke-width="5" stroke-miterlimit="10" stroke-linecap="round" stroke-linejoin="round"/>
<path d="M71.9727 95.4558C76.7189 95.4558 80.5664 91.6082 80.5664 86.862C80.5664 82.1158 76.7189 78.2683 71.9727 78.2683C67.2265 78.2683 63.3789 82.1158 63.3789 86.862C63.3789 91.6082 67.2265 95.4558 71.9727 95.4558Z" stroke="#405FF2" stroke-width="5" stroke-miterlimit="10" stroke-linecap="round" stroke-linejoin="round"/>
<path d="M51.5625 67.0964L63.5321 55.4899C65.9379 53.1387 64.2746 49.0512 60.9118 49.0512H49.9492C46.5803 49.0512 44.9199 44.9505 47.3384 42.6034L59.7345 30.573" stroke="#FF5CF3" stroke-width="5" stroke-miterlimit="10" stroke-linecap="round" stroke-linejoin="round"/>
</g>
</g>
<defs>
<clipPath id="clip0_5_1836">
<rect width="110" height="110" fill="white" transform="translate(0 0.280029)"/>
</clipPath>
<clipPath id="clip1_5_1836">
<rect width="110" height="110" fill="white" transform="translate(0 0.280029)"/>
</clipPath>
</defs>
</svg>
