<svg width="110" height="111" viewBox="0 0 110 111" fill="none" xmlns="http://www.w3.org/2000/svg">
<g clip-path="url(#clip0_5_1853)">
<g clip-path="url(#clip1_5_1853)">
<path d="M17.1875 84.5076V26.0524C17.1875 14.1918 26.779 4.5769 38.6109 4.5769H25.5664C13.7008 4.5769 4.08203 14.1956 4.08203 26.0612V84.4988C4.08203 96.3641 13.7008 105.983 25.5664 105.983H38.6109C26.779 105.983 17.1875 96.3682 17.1875 84.5076Z" />
<path d="M72.4023 104.786C70.1826 105.561 67.7967 105.983 65.3125 105.983H25.7812C13.9156 105.983 4.29688 96.3641 4.29688 84.4988V26.0612C4.29688 14.1956 13.9156 4.5769 25.7812 4.5769H65.3125C77.1779 4.5769 86.7969 14.1956 86.7969 26.0612V48.6198M54.7852 82.5652H71.1133M21.4844 82.3503L25.4341 86.4414C27.1343 88.1481 29.8912 88.1481 31.5915 86.4414L39.7461 78.0534" stroke="#405FF2" stroke-width="5" stroke-miterlimit="10" stroke-linecap="round" stroke-linejoin="round"/>
<path d="M105.047 70.3429C100.32 68.5047 97.1951 68.2422 94.8535 68.2422C90.5029 68.2422 87.0117 71.769 87.0117 76.1198C87.0117 80.4706 90.9148 83.9975 96.6917 83.9975C101.681 83.9975 105.703 87.5244 105.703 91.8752C105.703 96.2258 101.961 99.7529 97.6106 99.7529C95.5763 99.7529 91.0458 99.0924 86.582 97.318M96.6797 68.2422V61.2956M96.6797 99.7527V105.983M57.793 58.073V59.7917M34.1602 58.073V59.7917" stroke="#FF5CF4" stroke-width="5" stroke-miterlimit="10" stroke-linecap="round" stroke-linejoin="round"/>
<path d="M68.5352 37.0183H68.1835C68.1734 36.9946 68.1661 36.9702 68.1557 36.9467L64.3038 28.4003C64.3002 28.3923 64.2967 28.3846 64.2931 28.3766C62.5023 24.4667 58.9291 21.6017 54.734 20.7129C52.2427 20.1853 49.1996 19.8308 45.8829 19.8308C42.6308 19.8308 39.6816 20.1728 37.2649 20.682C33.0507 21.5702 29.4639 24.4377 27.6706 28.3528C27.6669 28.3607 27.6635 28.3687 27.6598 28.3766L23.7974 36.9465C23.7869 36.9699 23.7798 36.9944 23.7697 37.0181H23.418C21.0448 37.0181 19.1211 38.9418 19.1211 41.3149C19.1211 43.6881 21.0448 45.6118 23.418 45.6118V49.583C23.418 55.0937 27.8339 59.5769 33.2617 59.5769H58.6912C64.1193 59.5769 68.5352 55.0937 68.5352 49.5832V45.612C70.9083 45.612 72.832 43.6883 72.832 41.3152C72.832 38.942 70.9083 37.0183 68.5352 37.0183ZM35.4885 31.9215C36.1541 30.4769 37.4799 29.4193 39.0369 29.0912C40.6093 28.7599 42.9015 28.4245 45.8831 28.4245C48.9326 28.4245 51.3212 28.7745 52.953 29.1202C54.4951 29.447 55.811 30.5027 56.4755 31.9454L58.7617 37.0183H33.1914L35.4885 31.9215ZM35.0195 53.3464C32.1718 53.3464 29.8633 51.0379 29.8633 48.1902C29.8633 45.3424 32.1718 43.0339 35.0195 43.0339C37.8673 43.0339 40.1758 45.3424 40.1758 48.1902C40.1758 51.0379 37.8673 53.3464 35.0195 53.3464ZM56.9336 53.3464C54.0858 53.3464 51.7773 51.0379 51.7773 48.1902C51.7773 45.3424 54.0858 43.0339 56.9336 43.0339C59.7813 43.0339 62.0898 45.3424 62.0898 48.1902C62.0898 51.0379 59.7813 53.3464 56.9336 53.3464Z" fill="#FF5CF4"/>
</g>
</g>
<defs>
<clipPath id="clip0_5_1853">
<rect width="110" height="110" fill="white" transform="translate(0 0.280029)"/>
</clipPath>
<clipPath id="clip1_5_1853">
<rect width="110" height="110" fill="white" transform="translate(0 0.280029)"/>
</clipPath>
</defs>
</svg>
