<svg width="60" height="61" viewBox="0 0 60 61" fill="none" xmlns="http://www.w3.org/2000/svg">
<g clip-path="url(#clip0_5_1894)">
<g clip-path="url(#clip1_5_1894)">
<g clip-path="url(#clip2_5_1894)">
<mask id="mask0_5_1894" style="mask-type:luminance" maskUnits="userSpaceOnUse" x="0" y="0" width="60" height="61">
<path d="M60 0.780029H0V60.78H60V0.780029Z" fill="white"/>
</mask>
<g mask="url(#mask0_5_1894)">
<path d="M8.75573 37.5278L35.3054 10.978C37.136 9.14744 40.104 9.14744 41.9346 10.978L36.8955 5.93897C35.0649 4.1084 32.097 4.1084 30.2664 5.93897L3.71669 32.4887C1.88611 34.3193 1.88611 37.2873 3.71669 39.1178L8.75573 44.1568C6.92515 42.3262 6.92515 39.3583 8.75573 37.5278Z" />
<path d="M50.1537 19.1971C51.9843 21.0277 51.9843 23.9957 50.1537 25.8263L23.6039 52.3759C21.7734 54.2065 18.8054 54.2065 16.9748 52.3759L3.71669 39.1178C1.88611 37.2872 1.88611 34.3192 3.71669 32.4886L30.2664 5.93897C32.097 4.10839 35.0649 4.10839 36.8955 5.93897L43.5247 12.5681L52.9689 3.1239" stroke="#405FF2" stroke-width="3" stroke-miterlimit="10" stroke-linecap="round" stroke-linejoin="round"/>
<path d="M18.9648 31.8258C18.7646 33.2354 19.2066 34.7188 20.2909 35.8031C22.1215 37.6337 25.0895 37.6337 26.9201 35.8031C28.7507 33.9726 28.7507 31.0046 26.9201 29.174C25.0895 27.3434 25.0895 24.3754 26.9201 22.5448C28.7507 20.7142 31.7187 20.7142 33.5493 22.5448C34.6336 23.6291 35.0756 25.1125 34.8754 26.5221" stroke="#405FF2" stroke-width="3" stroke-miterlimit="10" stroke-linecap="round" stroke-linejoin="round"/>
<path d="M16.9766 39.1178L20.2911 35.8032" stroke="#405FF2" stroke-width="3" stroke-miterlimit="10" stroke-linecap="round" stroke-linejoin="round"/>
<path d="M33.5469 22.5451L36.8614 19.2305" stroke="#405FF2" stroke-width="3" stroke-miterlimit="10" stroke-linecap="round" stroke-linejoin="round"/>
<path d="M43.5938 58.4363L57.6562 44.3738" stroke="#FF5CF4" stroke-width="3" stroke-miterlimit="10" stroke-linecap="round" stroke-linejoin="round"/>
</g>
</g>
</g>
</g>
<defs>
<clipPath id="clip0_5_1894">
<rect width="60" height="60" fill="white" transform="translate(0 0.780029)"/>
</clipPath>
<clipPath id="clip1_5_1894">
<rect width="60" height="60" fill="white" transform="translate(0 0.780029)"/>
</clipPath>
<clipPath id="clip2_5_1894">
<rect width="60" height="60" fill="white" transform="translate(0 0.780029)"/>
</clipPath>
</defs>
</svg>
