<svg width="61" height="61" viewBox="0 0 61 61" fill="none" xmlns="http://www.w3.org/2000/svg">
<g clip-path="url(#clip0_5_1909)">
<g clip-path="url(#clip1_5_1909)">
<path d="M24.0465 5.23315C20.3452 5.23315 16.9904 7.41085 15.4836 10.7914L9.38656 24.4706C5.73148 24.7218 2.84375 27.7643 2.84375 31.4831V36.8738C2.84375 40.1098 5.46711 42.7331 8.70312 42.7331H10.3092C10.3179 42.2822 10.3293 41.8314 10.3438 41.3805C9.9623 40.603 9.74727 39.729 9.74727 38.8045L9.64062 34.6472C9.64062 31.5727 10.2662 30.3894 12.5483 29.9297C13.6331 29.7111 14.5413 28.972 14.9858 27.9586L22.5148 10.7914C24.0215 7.41085 27.3764 5.23315 31.0777 5.23315H24.0465Z" />
<path d="M8.70312 42.7331C5.46711 42.7331 2.84375 40.1098 2.84375 36.8738V31.4831C2.84375 27.7643 5.73148 24.7218 9.38656 24.4706L15.4836 10.7914C16.9903 7.41085 20.3451 5.23315 24.0465 5.23315H34.7217C38.2441 5.23315 41.4692 7.20753 43.0711 10.3446L46.0859 16.2488M58.1562 31.4831C58.1562 27.5999 55.0082 24.4519 51.125 24.4519H19.1328M28.7422 16.2488V5.35034M32.9609 42.7331H27.6873M21.242 38.0456C18.6532 38.0456 16.5545 40.1443 16.5545 42.7331C16.5545 45.3219 18.6532 47.4206 21.242 47.4206C23.8307 47.4206 25.9295 45.3219 25.9295 42.7331C25.9295 40.1443 23.8309 38.0456 21.242 38.0456Z" stroke="#405FF2" stroke-width="3" stroke-miterlimit="10" stroke-linecap="round" stroke-linejoin="round"/>
<path d="M58.1562 42.3817C58.1562 46.8798 54.5097 50.5848 50.0117 50.5848C45.5136 50.5848 41.8671 46.9384 41.8671 42.4403C41.8671 37.9421 45.5722 34.2957 50.0703 34.2957M44.0351 48.8856L36.5938 56.327" stroke="#FF5CF3" stroke-width="3" stroke-miterlimit="10" stroke-linecap="round" stroke-linejoin="round"/>
</g>
</g>
<defs>
<clipPath id="clip0_5_1909">
<rect width="60" height="60" fill="white" transform="translate(0.5 0.780029)"/>
</clipPath>
<clipPath id="clip1_5_1909">
<rect width="60" height="60" fill="white" transform="translate(0.5 0.780029)"/>
</clipPath>
</defs>
</svg>
